<?xml version="1.0" encoding="UTF-8"?>
<!DOCTYPE svg PUBLIC "-//W3C//DTD SVG 1.1//EN" "http://www.w3.org/Graphics/SVG/1.1/DTD/svg11.dtd">
<!-- Creator: CorelDRAW 2026 -->
<svg xmlns="http://www.w3.org/2000/svg" xml:space="preserve" width="32px" height="32px" version="1.1" style="shape-rendering:geometricPrecision; text-rendering:geometricPrecision; image-rendering:optimizeQuality; fill-rule:evenodd; clip-rule:evenodd"
viewBox="0 0 32 32"
 xmlns:xlink="http://www.w3.org/1999/xlink"
 xmlns:xodm="http://www.corel.com/coreldraw/odm/2003">
 <defs>
  <style type="text/css">
   <![CDATA[
    .fil1 {fill:#388E3C}
    .fil2 {fill:#388F3C}
    .fil0 {fill:#4BAE4F}
   ]]>
  </style>
 </defs>
 <g id="Camada_x0020_1">
  <metadata id="CorelCorpID_0Corel-Layer"/>
  <g id="_810091840">
   <path class="fil0" d="M4.787 22.537c0.452,-0.152 0.813,-0.483 0.887,-1.035 0.073,-0.546 -0.213,-0.955 -0.397,-1.38 -1.851,-4.288 -0.493,-9.238 3.043,-12.157 1.033,-0.852 2.284,-1.52 3.657,-1.919 0.574,-0.167 2.567,-0.583 3.119,-0.389 2.076,0 3.185,0.129 4.952,0.919 0.231,0.103 0.406,0.11 0.55,0.307 -0.156,0.214 -0.387,0.208 -0.614,0.489 -0.145,0.179 -0.306,0.463 -0.312,0.797 -0.009,0.621 0.422,1.252 0.962,1.288 0.116,-0.113 0.6,-0.334 0.801,-0.449 0.296,-0.17 0.525,-0.306 0.807,-0.48 1.716,-1.052 1.356,-1.216 1.363,-3.79 0.003,-1.333 -0.357,-1.268 -0.832,-1.655 -0.248,0.018 -0.259,0.039 -0.42,0.162 -0.445,0.341 -0.529,0.681 -0.529,1.248 -3.047,-1.612 -7.058,-2.097 -10.805,-0.632 -1.448,0.567 -2.548,1.263 -3.729,2.216l-1.047 0.975c-0.838,0.952 -1.599,1.947 -2.172,3.099 -0.602,1.214 -1.044,2.47 -1.273,4.059 -0.313,2.179 -0.044,4.783 0.825,6.768 0.253,0.576 0.49,1.383 1.164,1.559z"/>
   <path class="fil0" d="M15.14 29.13c0.155,-0.077 2.03,-0.31 3.28,-0.768 2.424,-0.89 4.378,-2.366 5.918,-4.317 1.553,-1.969 2.61,-4.724 2.707,-7.54 0.043,-1.244 -0.141,-2.539 -0.414,-3.706 -0.126,-0.542 -0.26,-1.065 -0.458,-1.561 -0.394,-0.981 -0.369,-0.712 -0.743,-1.352 -0.907,0.679 -0.253,1.643 0.001,2.276 1.016,2.533 1.075,5.589 -0.134,8.184 -0.233,0.5 -0.493,1.004 -0.775,1.43 -0.151,0.226 -0.279,0.421 -0.456,0.648 -0.43,0.549 -0.787,0.957 -1.304,1.392 -0.637,0.536 -0.659,0.646 -1.57,1.189 -2.075,1.235 -4.599,1.793 -7.099,1.376 -0.602,-0.1 -1.247,-0.255 -1.759,-0.447 -0.355,-0.133 -1.29,-0.467 -1.48,-0.727 0.263,-0.07 0.533,-0.287 0.677,-0.487 0.791,-1.107 -0.361,-2.755 -1.816,-1.877 -0.534,0.322 -1.845,1.106 -2.208,1.408 -0.576,0.478 -0.453,1.252 -0.453,1.937 0,0.725 -0.118,1.724 0.14,2.25 0.501,1.02 2.496,1.123 2.496,-0.779 1.327,0.702 3.433,1.471 5.45,1.471z"/>
   <path class="fil0" d="M15.422 19.937c-0.32,0.205 -0.85,-0.135 -1.022,-0.298 -0.228,-0.216 -0.436,-0.534 -0.395,-0.989l-2.17 0c0,1.069 0.301,1.728 0.761,2.364 0.631,0.875 1.076,0.984 1.813,1.374l0 1.533 2.187 0 0.003 -1.533c0.651,-0.343 0.844,-0.325 1.459,-0.948 2.121,-2.149 1.23,-5.954 -2.146,-6.635 -0.395,-0.079 -0.701,0.019 -1.086,-0.126 -0.969,-0.366 -1.151,-1.672 -0.295,-2.28 0.176,-0.125 0.634,-0.347 0.891,-0.184 0.898,-0.172 1.622,0.371 1.622,1.287l2.181 0c-0.102,-1.325 -0.589,-2.502 -1.622,-3.196 -1.255,-0.841 -1.002,-0.044 -1.002,-2.075l-2.192 0 0 1.533c-0.151,0.079 -0.278,0.113 -0.43,0.183 -0.145,0.067 -0.243,0.139 -0.38,0.232 -0.259,0.176 -0.464,0.323 -0.678,0.548 -0.925,0.972 -1.305,2.362 -0.977,3.707 0.361,1.49 1.732,2.754 3.209,2.92 0.737,0.083 1.326,-0.03 1.728,0.723 0.16,0.296 0.214,0.638 0.106,1.006 -0.188,0.647 -0.822,0.996 -1.565,0.854z"/>
   <path class="fil1" d="M25.43 9.886c0.374,0.64 0.349,0.371 0.743,1.352 0.198,0.496 0.332,1.019 0.458,1.561 0.273,1.167 0.457,2.462 0.414,3.706 -0.097,2.816 -1.154,5.571 -2.707,7.54 -1.54,1.951 -3.494,3.427 -5.918,4.317 -1.25,0.458 -3.125,0.691 -3.28,0.768 0.372,0.007 0.595,0.109 1.081,0.035 0.335,-0.051 0.767,-0.056 1.073,-0.091 0.739,-0.086 1.318,-0.206 1.956,-0.373 0.529,-0.138 1.264,-0.394 1.716,-0.613 0.263,-0.128 0.537,-0.238 0.797,-0.367 0.237,-0.118 0.517,-0.272 0.748,-0.418 1.606,-1.006 2.841,-2.106 3.91,-3.627 0.092,-0.131 0.161,-0.203 0.257,-0.356 1.085,-1.728 1.966,-3.873 2.129,-6.022 0.014,-0.179 -0.007,-0.358 0.013,-0.539 0.122,-1.12 -0.061,-2.649 -0.315,-3.687 -0.153,-0.626 -0.754,-2.645 -1.261,-3.152 -0.51,-0.51 -1.403,-0.564 -1.814,-0.034z"/>
   <path class="fil1" d="M4.787 22.537c1.007,0.421 2.062,-0.629 1.69,-1.654 -0.073,-0.201 -0.196,-0.442 -0.282,-0.638 -1.192,-2.698 -1.081,-6.131 0.103,-8.48 0.221,-0.439 0.397,-0.804 0.637,-1.202 0.234,-0.39 0.519,-0.752 0.793,-1.106l0.894 -0.945c0.262,-0.201 0.513,-0.494 1.032,-0.868 1.442,-1.04 3.707,-1.987 5.442,-1.987 -0.552,-0.194 -2.545,0.222 -3.119,0.389 -1.373,0.399 -2.624,1.067 -3.657,1.919 -3.536,2.919 -4.894,7.869 -3.043,12.157 0.184,0.425 0.47,0.834 0.397,1.38 -0.074,0.552 -0.435,0.883 -0.887,1.035z"/>
   <path class="fil1" d="M16.596 23.921l0.509 0 0 -1.533c1.084,-0.52 1.891,-1.038 2.353,-2.366 0.91,-2.611 -0.936,-5.203 -3.702,-5.293 -0.427,-0.014 -0.606,-0.102 -0.844,-0.321 -0.804,-0.742 -0.462,-1.903 0.51,-2.193 -0.257,-0.163 -0.715,0.059 -0.891,0.184 -0.856,0.608 -0.674,1.914 0.295,2.28 0.385,0.145 0.691,0.047 1.086,0.126 3.376,0.681 4.267,4.486 2.146,6.635 -0.615,0.623 -0.808,0.605 -1.459,0.948l-0.003 1.533z"/>
   <path class="fil1" d="M22.773 3.083c0.475,0.387 0.835,0.322 0.832,1.655 -0.007,2.574 0.353,2.738 -1.363,3.79 -0.282,0.174 -0.511,0.31 -0.807,0.48 -0.201,0.115 -0.685,0.336 -0.801,0.449 0.06,0.061 -0.055,-0.002 0.097,0.061 0.219,0.091 0.29,0.062 0.444,0.031 0.541,-0.11 1.941,-1.058 2.476,-1.39 0.417,-0.26 0.566,-0.365 0.742,-0.852 0.146,-0.402 0.095,-2.452 0.068,-3.061 -0.043,-0.963 -1.05,-1.413 -1.545,-1.24 -0.129,0.044 -0.105,0.043 -0.143,0.077z"/>
   <path class="fil1" d="M19.225 13.502l0.454 0c0,-1.61 -0.773,-2.761 -2.024,-3.492 -0.192,-0.112 -0.356,-0.153 -0.55,-0.246l0 -1.533 -0.504 0c0,2.031 -0.253,1.234 1.002,2.075 1.033,0.694 1.52,1.871 1.622,3.196z"/>
   <path class="fil2" d="M15.422 19.937c-0.114,-0.075 -0.208,-0.084 -0.353,-0.169 -0.358,-0.21 -0.599,-0.645 -0.599,-1.118l-0.465 0c-0.041,0.455 0.167,0.773 0.395,0.989 0.172,0.163 0.702,0.503 1.022,0.298z"/>
  </g>
 </g>
</svg>
