<?xml version="1.0" encoding="UTF-8"?>
<!DOCTYPE svg PUBLIC "-//W3C//DTD SVG 1.1//EN" "http://www.w3.org/Graphics/SVG/1.1/DTD/svg11.dtd">
<!-- Creator: CorelDRAW 2026 -->
<svg xmlns="http://www.w3.org/2000/svg" xml:space="preserve" width="2550px" height="3300px" version="1.1" style="shape-rendering:geometricPrecision; text-rendering:geometricPrecision; image-rendering:optimizeQuality; fill-rule:evenodd; clip-rule:evenodd"
viewBox="0 0 2550 3300"
 xmlns:xlink="http://www.w3.org/1999/xlink"
 xmlns:xodm="http://www.corel.com/coreldraw/odm/2003">
 <defs>
  <style type="text/css">
   <![CDATA[
    .fil14 {fill:#FAE7C9}
    .fil0 {fill:#FEFEFE;fill-rule:nonzero}
    .fil3 {fill:#FEFEFC;fill-rule:nonzero}
    .fil7 {fill:#FEF7EA;fill-rule:nonzero}
    .fil11 {fill:#F3986F;fill-rule:nonzero}
    .fil12 {fill:#ED6D41;fill-rule:nonzero}
    .fil13 {fill:#FCFDFE;fill-rule:nonzero}
    .fil9 {fill:#FCF6EA;fill-rule:nonzero}
    .fil10 {fill:#D48966;fill-rule:nonzero}
    .fil6 {fill:#BE5532;fill-rule:nonzero}
    .fil1 {fill:#CCCED1;fill-rule:nonzero}
    .fil2 {fill:#CACCCE;fill-rule:nonzero}
    .fil5 {fill:#C6C9C6;fill-rule:nonzero}
    .fil8 {fill:#7E786E;fill-rule:nonzero}
    .fil4 {fill:#3C3B3B;fill-rule:nonzero}
   ]]>
  </style>
 </defs>
 <g id="Camada_x0020_1">
  <metadata id="CorelCorpID_0Corel-Layer"/>
  <g id="_1037116720">
   <path class="fil0" d="M7.51 1369.38c108.42,-54.48 226.75,-87.89 354.03,-87.89 13.93,0 27.97,0.4 42.11,1.22 155.16,8.96 292.36,69.58 415.86,155.81 185.24,129.34 339.26,316.27 475.34,471.19 68.06,77.47 131.63,146.93 192.71,197.27 30.54,25.16 60.48,45.55 90.14,59.72 29.65,14.15 59.09,22.08 88.43,22.08 43.74,0.04 86.85,-17.76 129.18,-57.06 26.5,-24.64 46.2,-64 61.73,-114.16 27.11,-87.78 41.25,-209.1 51.74,-343.63 15.7,-201.74 23.07,-433.12 52.38,-623.52 14.64,-95.18 34.79,-180.1 63.96,-245.71 14.57,-32.81 31.39,-60.77 50.77,-82.83 19.39,-22.06 41.28,-38.21 64.25,-52.95 -43.05,10.32 -75.88,42.51 -102.29,86.52 -46.22,77.08 -73.56,190.8 -91.87,320.87 -27.41,195.07 -34.17,426.95 -50.72,625.3 -8.27,99.16 -18.99,189.93 -35.85,263.31 -8.43,36.69 -18.39,69.02 -30.26,95.83 -11.87,26.81 -25.65,48.04 -41.49,62.71 -40.92,37.88 -80.91,54.03 -121.53,54.07 -36.37,0 -73.64,-13.11 -112.35,-36.63 -67.74,-41.13 -139.38,-113.99 -216.88,-200.67 -116.31,-130.03 -245.96,-291.04 -398.2,-422.7 -152.22,-131.63 -327.32,-234.09 -534.4,-246.06 -14.36,-0.82 -28.62,-1.24 -42.76,-1.24 -127.3,0 -245.68,32.93 -354.03,86.57l0 12.58z"/>
   <path class="fil1" d="M2287.59 766.62l1.93 -7.39 -2.32 -1.58c13.42,-9.26 24.53,-21.62 32.3,-36.05l3.91 5.74c-3.32,8.07 -8.5,16.79 -16.55,25.03 -6.46,6.6 -13.04,11.14 -19.27,14.25z"/>
   <path class="fil2" d="M2261.18 773.04c-4.02,0 -6.46,-0.48 -6.56,-0.5 11.82,-3.04 22.82,-8.14 32.58,-14.89l2.32 1.58 -1.93 7.39c-10.72,5.34 -20.36,6.42 -26.41,6.42z"/>
   <path class="fil2" d="M2323.41 727.34l-3.91 -5.74c4.31,-8.01 7.59,-16.66 9.66,-25.77 0.08,0.82 1.16,14.76 -5.75,31.51z"/>
   <path class="fil0" d="M2100.54 575.23c0,5.28 -4.28,9.57 -9.56,9.57 -5.3,0 -9.58,-4.29 -9.58,-9.57 0,-5.29 4.28,-9.57 9.58,-9.57 5.28,0 9.56,4.28 9.56,9.57z"/>
   <path class="fil0" d="M2135.91 532.8c0,5.28 -4.29,9.57 -9.58,9.57 -5.29,0 -9.57,-4.29 -9.57,-9.57 0,-5.29 4.28,-9.58 9.57,-9.58 5.29,0 9.58,4.29 9.58,9.58z"/>
   <polygon class="fil0" points="2089.88,577.82 2186.49,618.35 2128.68,531.24 2123.99,534.35 2171.51,605.96 2092.06,572.64 "/>
   <g>
    <g>
     <path class="fil3" d="M2259.11 738.5l-18.35 138.85c0,0 4.02,42.08 18.93,36.92 14.91,-5.16 5.45,-31.66 5.45,-31.66 0,0 8.5,-0.73 10.93,-6.4 2.68,-6.25 -14.65,-9.18 -14.65,-9.18l28.1 -107.8 -30.41 -20.73z"/>
     <path class="fil3" d="M2304.15 699.1l138.85 -18.36c0,0 42.09,4.01 36.93,18.93 -5.17,14.91 -31.67,5.44 -31.67,5.44 0,0 -0.73,8.5 -6.4,10.93 -6.25,2.68 -9.18,-14.65 -9.18,-14.65l-107.8 28.1 -20.73 -30.39z"/>
     <g>
      <polygon class="fil0" points="2242.94,734.77 2339.44,886.24 2429.01,782.19 2282.6,687.41 "/>
      <polygon class="fil0" points="2345.07,822.56 2364.03,940.78 2336.11,975.24 2394.67,949.14 2370.77,815.8 "/>
      <polygon class="fil0" points="2376.56,782.09 2491.09,817.01 2529.03,794.06 2495.19,848.5 2366.35,806.64 "/>
      <path class="fil0" d="M2331.73 672.91c0,56.82 -46.07,102.89 -102.9,102.89 -56.82,0 -102.88,-46.07 -102.88,-102.89 0,-56.84 46.06,-102.9 102.88,-102.9 56.83,0 102.9,46.06 102.9,102.9z"/>
     </g>
    </g>
    <path class="fil4" d="M2266.73 707.87c-34.82,37.73 -80.01,52.65 -100.93,33.34 -20.93,-19.31 -9.67,-65.55 25.14,-103.27 34.82,-37.73 80.01,-52.66 100.93,-33.34 20.93,19.31 9.67,65.55 -25.14,103.27z"/>
   </g>
   <polygon class="fil5" points="2295.22,782.09 2337.64,820.16 2374.16,778.75 2330.91,744.89 "/>
   <polygon class="fil6" points="2342.94,823.63 2348.04,829.34 2382.52,787.08 2377.02,783.86 "/>
   <path class="fil7" d="M2229.39 607.43c-0.11,-1.06 0.2,-1.75 1.11,-1.87 0.09,0.4 0.33,0.67 0.48,1.02 -0.53,0.28 -1.06,0.56 -1.59,0.85z"/>
   <path class="fil8" d="M2231.04 607.61l-1.63 0c0,-0.06 -0.01,-0.12 -0.02,-0.18 0.53,-0.29 1.06,-0.57 1.59,-0.85 0.11,0.27 0.16,0.58 0.06,1.03z"/>
   <path class="fil7" d="M2199.12 619.97c-1.62,-0.34 -2.09,-1.77 -2.16,-3.6 0.59,-1.12 1.3,-1.56 1.97,-1.56 2.17,0 3.95,4.52 0.19,5.16z"/>
   <path class="fil8" d="M2221.66 682.51c-0.11,0 -0.21,-0.01 -0.32,-0.02 -0.69,-0.61 -0.23,-1.95 0.54,-2.57 0.1,0.33 0.35,0.52 0.81,0.52 0.09,0 0.17,0 0.28,-0.01 0.12,1.24 -0.16,2.08 -1.31,2.08z"/>
   <path class="fil8" d="M2186.73 725c-0.79,0 -1.18,-0.54 -1.18,-1.07 0,-0.54 0.4,-1.07 1.18,-1.07 0.12,0 0.25,0.01 0.39,0.04l0 2.06c-0.14,0.03 -0.27,0.04 -0.39,0.04z"/>
   <path class="fil7" d="M2358.77 907.11c-0.05,0 -0.09,0 -0.14,0l-0.29 -1.83c0.16,-0.08 0.31,-0.17 0.46,-0.27 0.16,0.7 0.77,0.99 0.55,2.07 -0.21,0.02 -0.4,0.03 -0.58,0.03z"/>
   <path class="fil9" d="M2336.59 695.88c-0.92,0 -1.79,-0.27 -2.51,-0.74l4.58 -0.61c-0.04,0.32 -0.1,0.64 -0.19,0.95 -0.63,0.28 -1.26,0.4 -1.88,0.4z"/>
   <path class="fil8" d="M2183.25 706.83c-2.81,0 -2.4,-2.75 -0.08,-3.1 0.94,1.08 1.19,1.52 0.53,3.08 -0.16,0.01 -0.31,0.02 -0.45,0.02z"/>
   <path class="fil7" d="M2334.71 738.49c-0.52,0 -1.06,-0.31 -1.85,-0.77 -0.05,-1.26 0.8,-1.89 1.63,-1.89 0.84,0 1.68,0.63 1.63,1.89 -0.55,0.55 -0.98,0.77 -1.41,0.77z"/>
   <path class="fil7" d="M2278.29 748.04c-2.83,0 -2.23,-2.58 -1.18,-4.13l1.62 0c0.8,0.75 0.8,3.36 0,4.11 -0.15,0.01 -0.31,0.02 -0.44,0.02z"/>
   <path class="fil8" d="M2194.06 748.06c-0.19,0 -0.38,-0.02 -0.58,-0.04l0 -2.06c0.08,0 0.17,0 0.27,0 0.81,0 1.46,0.15 1.89,0.53 0.15,1.16 -0.5,1.57 -1.58,1.57z"/>
   <path class="fil7" d="M2404.15 800.94c-1.67,0 -2.58,-1.22 -2.53,-3.46 0.69,-0.7 1.52,-1.01 2.27,-1.01 1.8,0 3.25,1.73 2.04,4.1 -0.67,0.25 -1.26,0.37 -1.78,0.37z"/>
   <path class="fil7" d="M2159.53 596.85c0.61,-0.55 1.22,-1.1 1.84,-1.64 0.03,0.81 -0.58,1.56 -1.84,1.64z"/>
   <path class="fil7" d="M2141.4 623.72c-0.93,0 -1.83,-0.19 -2.66,-0.54 1.32,-2.41 2.75,-4.75 4.26,-7.03 1.64,1.71 2.45,4.26 1.36,6.92 -0.97,0.44 -1.98,0.65 -2.96,0.65z"/>
   <path class="fil7" d="M2173.23 607.4c-0.79,-0.71 -0.79,-2.61 0.69,-2.61 0.11,0 0.25,0.01 0.39,0.04 0.09,1.27 0.11,2.5 -1.08,2.57z"/>
   <path class="fil8" d="M2272 623.22c-0.83,0 -1.8,-0.85 -1.98,-1.83 1.29,0.18 2.36,0.53 2.72,1.54 -0.21,0.19 -0.47,0.29 -0.74,0.29z"/>
   <path class="fil7" d="M2357.63 819.26c-0.1,-0.5 -0.18,-0.97 -0.22,-1.4l3.57 -4.38c0.03,0 0.07,0 0.1,0 1.75,0 3.26,1.8 3.99,3.82l-7.44 1.96z"/>
   <path class="fil7" d="M2362.81 822.89c-1.17,0 -2.75,-0.5 -4.83,-1.73 -0.1,-0.7 -0.24,-1.32 -0.35,-1.9l7.44 -1.96c0.11,0.29 0.2,0.59 0.27,0.89 0.56,2.35 -0.01,4.7 -2.53,4.7z"/>
   <path class="fil10" d="M2357.41 817.86c-0.07,-0.87 0.03,-1.63 0.57,-2.36 1.01,-1.39 2.04,-1.98 3,-2.02l-3.57 4.38z"/>
   <path class="fil8" d="M2281.03 656.74c-1.08,0 -1.74,-0.41 -1.6,-1.57 0.61,-0.03 0.74,-0.54 1.38,-0.54 0.07,0 0.15,0.01 0.24,0.02 0.17,0.7 0.79,0.98 0.54,2.06 -0.19,0.02 -0.39,0.03 -0.56,0.03z"/>
   <path class="fil8" d="M2256.59 673.67c-0.11,0 -0.23,0 -0.37,-0.02 -0.44,-0.58 -0.71,-1.37 -0.55,-2.57l2.17 0c0.1,1.35 0.08,2.59 -1.25,2.59z"/>
   <path class="fil9" d="M2430.97 696.77l-2.71 0c-0.2,-1.55 0.07,-2.64 1.5,-2.64 0.2,0 0.42,0.03 0.66,0.07 0.47,0.6 0.71,1.38 0.55,2.57z"/>
   <path class="fil7" d="M2250.75 732.88c-0.15,0 -0.31,-0.02 -0.48,-0.05l0 -2.05c0.27,-0.06 0.51,-0.09 0.72,-0.09 0.93,0 1.33,0.55 1.26,1.09 -0.05,0.55 -0.58,1.1 -1.5,1.1z"/>
   <path class="fil8" d="M2188.89 735.79c-0.12,0 -0.25,-0.01 -0.39,-0.04 -0.92,-1.02 0.04,-0.65 0,-2.06 0.13,-0.03 0.26,-0.04 0.37,-0.04 0.79,0 1.19,0.54 1.19,1.08 0,0.53 -0.39,1.06 -1.17,1.06z"/>
   <path class="fil11" d="M2360.35 737.75l-0.99 -0.64 0.78 0c0.09,0.22 0.16,0.43 0.21,0.64z"/>
   <path class="fil7" d="M2359.05 740.21c-0.09,-0.33 -0.34,-0.54 -0.79,-0.54 -0.09,0 -0.18,0.01 -0.28,0.02 -0.17,-1.18 0.08,-1.98 0.53,-2.58l0.85 0 0.99 0.64c0.27,1.08 -0.1,1.89 -1.3,2.46z"/>
   <path class="fil7" d="M2300.66 765.58c-1.11,0 -2.23,-0.94 -0.82,-2.81l1.63 0c1.41,1.87 0.3,2.81 -0.81,2.81z"/>
   <path class="fil7" d="M2379.64 767.95c-1.87,0 -2.02,-1.32 -1.41,-2.63l2.17 0c0.39,1.6 0.39,1 0,2.57 -0.28,0.05 -0.54,0.06 -0.76,0.06z"/>
   <path class="fil7" d="M2288.98 779.75c-1.26,0 -1.78,-0.7 -1.57,-2.1 0.37,-0.39 0.8,-0.56 1.19,-0.56 1.23,0 2.26,1.54 0.98,2.61 -0.22,0.04 -0.42,0.05 -0.6,0.05z"/>
   <path class="fil9" d="M2251.08 805.26c-0.28,0 -0.55,-0.02 -0.78,-0.07l0.44 -3.33c1.04,0.66 1.88,2.21 0.68,3.39 -0.12,0.01 -0.23,0.01 -0.34,0.01z"/>
   <path class="fil9" d="M2272.71 822.68c-0.18,0 -0.37,-0.02 -0.58,-0.04 -0.12,-1.24 0.16,-2.07 1.33,-2.07 0.02,0 0.04,0 0.07,0.01l-0.55 2.08c-0.09,0.01 -0.18,0.02 -0.27,0.02z"/>
   <path class="fil7" d="M2337.42 850.14l-2.16 0c-0.16,-1.16 0.12,-1.94 1.09,-2.06 0.27,0.76 0.79,1.29 1.07,2.06z"/>
   <g>
    <path class="fil12" d="M2324.21 780.15c0,3.83 -3.1,6.93 -6.94,6.93 -3.82,0 -6.93,-3.1 -6.93,-6.93 0,-3.84 3.11,-6.94 6.93,-6.94 3.84,0 6.94,3.1 6.94,6.94z"/>
    <path class="fil3" d="M2341.09 763.27c0,3.83 -3.1,6.93 -6.93,6.93 -3.83,0 -6.94,-3.1 -6.94,-6.93 0,-3.84 3.11,-6.94 6.94,-6.94 3.83,0 6.93,3.1 6.93,6.94z"/>
    <path class="fil12" d="M2341.09 797.03c0,3.83 -3.1,6.93 -6.93,6.93 -3.83,0 -6.94,-3.1 -6.94,-6.93 0,-3.83 3.11,-6.94 6.94,-6.94 3.83,0 6.93,3.11 6.93,6.94z"/>
    <path class="fil13" d="M2357.98 780.15c0,3.83 -3.11,6.93 -6.94,6.93 -3.83,0 -6.94,-3.1 -6.94,-6.93 0,-3.84 3.11,-6.94 6.94,-6.94 3.83,0 6.94,3.1 6.94,6.94z"/>
    <polygon class="fil6" points="2354.2,834.88 2359.3,840.6 2393.77,798.33 2388.27,795.11 "/>
    <path class="fil14" d="M2363.79 824.32c0,4.33 -3.73,7.84 -8.32,7.84 -4.59,0 -8.33,-3.51 -8.33,-7.84 0,-4.33 3.74,-7.84 8.33,-7.84 4.59,0 8.32,3.51 8.32,7.84z"/>
   </g>
  </g>
 </g>
</svg>
