<?xml version="1.0" encoding="UTF-8"?>
<!DOCTYPE svg PUBLIC "-//W3C//DTD SVG 1.1//EN" "http://www.w3.org/Graphics/SVG/1.1/DTD/svg11.dtd">
<!-- Creator: CorelDRAW 2026 -->
<svg xmlns="http://www.w3.org/2000/svg" xml:space="preserve" width="223px" height="158px" version="1.1" style="shape-rendering:geometricPrecision; text-rendering:geometricPrecision; image-rendering:optimizeQuality; fill-rule:evenodd; clip-rule:evenodd"
viewBox="0 0 223 157.68"
 xmlns:xlink="http://www.w3.org/1999/xlink"
 xmlns:xodm="http://www.corel.com/coreldraw/odm/2003">
 <defs>
  <style type="text/css">
   <![CDATA[
    .fil14 {fill:#FAE7C9}
    .fil4 {fill:#3C3B3B;fill-rule:nonzero}
    .fil8 {fill:#7E786E;fill-rule:nonzero}
    .fil6 {fill:#BE5532;fill-rule:nonzero}
    .fil5 {fill:#C6C9C6;fill-rule:nonzero}
    .fil2 {fill:#CACCCE;fill-rule:nonzero}
    .fil1 {fill:#CCCED1;fill-rule:nonzero}
    .fil10 {fill:#D48966;fill-rule:nonzero}
    .fil12 {fill:#ED6D41;fill-rule:nonzero}
    .fil11 {fill:#F3986F;fill-rule:nonzero}
    .fil9 {fill:#FCF6EA;fill-rule:nonzero}
    .fil13 {fill:#FCFDFE;fill-rule:nonzero}
    .fil7 {fill:#FEF7EA;fill-rule:nonzero}
    .fil3 {fill:#FEFEFC;fill-rule:nonzero}
    .fil0 {fill:#FEFEFE;fill-rule:nonzero}
   ]]>
  </style>
 </defs>
 <g id="Layer_x0020_1">
  <metadata id="CorelCorpID_0Corel-Layer"/>
  <g id="_741060592">
   <g id="_1037116720">
    <path class="fil0" d="M4.99 80.77c9.1,-4.58 19.04,-7.39 29.74,-7.39 1.17,0 2.35,0.04 3.54,0.11 13.03,0.75 24.56,5.84 34.93,13.09 15.56,10.86 28.5,26.57 39.94,39.58 5.71,6.51 11.05,12.34 16.19,16.57 2.56,2.12 5.08,3.83 7.57,5.02 2.49,1.19 4.96,1.85 7.43,1.85 3.67,0.01 7.29,-1.49 10.85,-4.79 2.23,-2.07 3.88,-5.38 5.19,-9.59 2.27,-7.37 3.46,-17.57 4.34,-28.87 1.32,-16.95 1.94,-36.38 4.4,-52.38 1.23,-8 2.93,-15.13 5.38,-20.64 1.22,-2.76 2.63,-5.11 4.26,-6.96 1.63,-1.85 3.47,-3.21 5.4,-4.45 -3.62,0.87 -6.38,3.57 -8.59,7.27 -3.89,6.47 -6.18,16.03 -7.72,26.96 -2.31,16.38 -2.87,35.86 -4.26,52.53 -0.7,8.33 -1.6,15.95 -3.02,22.12 -0.7,3.08 -1.54,5.8 -2.54,8.05 -0.99,2.25 -2.15,4.03 -3.48,5.27 -3.44,3.18 -6.8,4.54 -10.21,4.54 -3.06,0 -6.19,-1.1 -9.44,-3.08 -5.69,-3.45 -11.71,-9.57 -18.22,-16.86 -9.77,-10.92 -20.66,-24.45 -33.45,-35.51 -12.79,-11.06 -27.5,-19.66 -44.9,-20.67 -1.21,-0.07 -2.4,-0.1 -3.59,-0.1 -10.7,0 -20.64,2.76 -29.74,7.27l0 1.06 0 0z"/>
    <path class="fil1" d="M196.54 30.13l0.16 -0.62 -0.2 -0.14c1.13,-0.77 2.06,-1.81 2.72,-3.02l0.33 0.48c-0.28,0.68 -0.72,1.41 -1.39,2.1 -0.55,0.56 -1.1,0.94 -1.62,1.2l0 0z"/>
    <path class="fil2" d="M194.32 30.67c-0.34,0 -0.55,-0.04 -0.55,-0.04 0.99,-0.26 1.91,-0.69 2.73,-1.26l0.2 0.14 -0.16 0.62c-0.9,0.45 -1.71,0.54 -2.22,0.54z"/>
    <path class="fil2" d="M199.55 26.83l-0.33 -0.48c0.36,-0.68 0.63,-1.4 0.81,-2.17 0.01,0.07 0.1,1.24 -0.48,2.65z"/>
    <path class="fil0" d="M180.82 14.05c0,0.44 -0.36,0.8 -0.8,0.8 -0.45,0 -0.81,-0.36 -0.81,-0.8 0,-0.44 0.36,-0.8 0.81,-0.8 0.44,0 0.8,0.36 0.8,0.8z"/>
    <path class="fil0" d="M183.79 10.48c0,0.45 -0.36,0.81 -0.8,0.81 -0.45,0 -0.81,-0.36 -0.81,-0.81 0,-0.44 0.36,-0.8 0.81,-0.8 0.44,0 0.8,0.36 0.8,0.8z"/>
    <polygon class="fil0" points="179.93,14.27 188.04,17.67 183.19,10.35 182.79,10.62 186.78,16.63 180.11,13.83 "/>
    <g>
     <g>
      <path class="fil3" d="M194.14 27.77l-1.54 11.66c0,0 0.34,3.54 1.59,3.1 1.26,-0.43 0.46,-2.66 0.46,-2.66 0,0 0.71,-0.06 0.92,-0.53 0.22,-0.53 -1.23,-0.78 -1.23,-0.78l2.36 -9.05 -2.56 -1.74 0 0z"/>
      <path class="fil3" d="M197.93 24.46l11.66 -1.55c0,0 3.54,0.34 3.1,1.59 -0.43,1.26 -2.66,0.46 -2.66,0.46 0,0 -0.06,0.71 -0.53,0.92 -0.53,0.22 -0.77,-1.23 -0.77,-1.23l-9.06 2.36 -1.74 -2.55z"/>
      <g>
       <polygon class="fil0" points="192.79,27.45 200.89,40.18 208.42,31.44 196.12,23.47 "/>
       <polygon class="fil0" points="201.37,34.83 202.96,44.76 200.61,47.65 205.53,45.46 203.52,34.26 "/>
       <polygon class="fil0" points="204.01,31.43 213.63,34.36 216.82,32.43 213.98,37.01 203.15,33.49 "/>
       <path class="fil0" d="M200.24 22.26c0,4.77 -3.87,8.64 -8.64,8.64 -4.77,0 -8.64,-3.87 -8.64,-8.64 0,-4.78 3.87,-8.65 8.64,-8.65 4.77,0 8.64,3.87 8.64,8.65z"/>
      </g>
     </g>
     <path class="fil4" d="M194.78 25.19c-2.92,3.17 -6.72,4.43 -8.48,2.8 -1.75,-1.62 -0.81,-5.5 2.12,-8.67 2.92,-3.17 6.72,-4.43 8.48,-2.8 1.75,1.62 0.81,5.5 -2.12,8.67z"/>
    </g>
    <polygon class="fil5" points="197.18,31.43 200.74,34.63 203.81,31.15 200.18,28.3 "/>
    <polygon class="fil6" points="201.19,34.92 201.61,35.4 204.51,31.85 204.05,31.58 "/>
    <path class="fil7" d="M191.65 16.75c-0.01,-0.08 0.01,-0.14 0.09,-0.15 0.01,0.03 0.03,0.05 0.04,0.08 -0.04,0.03 -0.09,0.05 -0.13,0.07z"/>
    <path class="fil8" d="M191.79 16.77l-0.14 0c0,-0.01 0,-0.01 0,-0.02 0.04,-0.02 0.09,-0.04 0.13,-0.07 0.01,0.03 0.01,0.05 0.01,0.09z"/>
    <path class="fil7" d="M189.1 17.81c-0.13,-0.03 -0.17,-0.15 -0.18,-0.3 0.05,-0.1 0.11,-0.14 0.17,-0.14 0.18,0 0.33,0.38 0.01,0.44z"/>
    <path class="fil8" d="M191 23.06c-0.01,0 -0.02,0 -0.03,0 -0.06,-0.05 -0.02,-0.16 0.05,-0.22 0,0.03 0.03,0.05 0.06,0.05 0.01,0 0.02,0 0.03,0 0.01,0.1 -0.02,0.17 -0.11,0.17z"/>
    <path class="fil8" d="M188.06 26.63c-0.06,0 -0.1,-0.04 -0.1,-0.09 0,-0.04 0.04,-0.09 0.1,-0.09 0.01,0 0.02,0 0.04,0.01l0 0.17c-0.02,0 -0.03,0 -0.04,0z"/>
    <path class="fil7" d="M202.52 41.93c-0.01,0 -0.01,0 -0.02,0l-0.02 -0.15c0.01,-0.01 0.03,-0.02 0.04,-0.03 0.01,0.06 0.06,0.09 0.05,0.18 -0.02,0 -0.04,0 -0.05,0z"/>
    <path class="fil9" d="M200.65 24.19c-0.07,0 -0.15,-0.03 -0.21,-0.07l0.39 -0.05c-0.01,0.03 -0.01,0.06 -0.02,0.08 -0.05,0.03 -0.1,0.04 -0.16,0.04z"/>
    <path class="fil8" d="M187.77 25.11c-0.24,0 -0.2,-0.24 -0.01,-0.27 0.08,0.1 0.1,0.13 0.05,0.26 -0.01,0 -0.03,0.01 -0.04,0.01l0 0z"/>
    <path class="fil7" d="M200.5 27.77c-0.05,0 -0.09,-0.03 -0.16,-0.07 0,-0.11 0.07,-0.16 0.14,-0.16 0.07,0 0.14,0.05 0.13,0.16 -0.04,0.05 -0.08,0.07 -0.11,0.07z"/>
    <path class="fil7" d="M195.76 28.57c-0.24,0 -0.19,-0.22 -0.1,-0.35l0.13 0c0.07,0.06 0.07,0.28 0,0.35 -0.01,0 -0.02,0 -0.03,0z"/>
    <path class="fil8" d="M188.68 28.57c-0.02,0 -0.03,0 -0.05,0l0 -0.18c0.01,0 0.01,0 0.02,0 0.07,0 0.13,0.02 0.16,0.05 0.01,0.09 -0.04,0.13 -0.13,0.13z"/>
    <path class="fil7" d="M206.33 33.01c-0.14,0 -0.22,-0.1 -0.21,-0.29 0.05,-0.06 0.12,-0.08 0.19,-0.08 0.15,0 0.27,0.14 0.17,0.34 -0.06,0.02 -0.11,0.03 -0.15,0.03z"/>
    <path class="fil7" d="M185.78 15.87c0.05,-0.05 0.1,-0.1 0.15,-0.14 0.01,0.07 -0.05,0.13 -0.15,0.14z"/>
    <path class="fil7" d="M184.25 18.12c-0.07,0 -0.15,-0.01 -0.22,-0.04 0.11,-0.2 0.23,-0.4 0.36,-0.59 0.14,0.14 0.21,0.36 0.11,0.58 -0.08,0.04 -0.16,0.05 -0.25,0.05l0 0z"/>
    <path class="fil7" d="M186.93 16.75c-0.07,-0.06 -0.07,-0.22 0.06,-0.22 0.01,0 0.02,0 0.03,0.01 0.01,0.1 0.01,0.21 -0.09,0.21z"/>
    <path class="fil8" d="M195.23 18.08c-0.07,0 -0.15,-0.07 -0.17,-0.15 0.11,0.01 0.2,0.04 0.23,0.13 -0.02,0.01 -0.04,0.02 -0.06,0.02z"/>
    <path class="fil7" d="M202.42 34.55c-0.01,-0.04 -0.01,-0.08 -0.02,-0.12l0.3 -0.36c0,0 0.01,0 0.01,0 0.15,0 0.27,0.15 0.34,0.32l-0.63 0.16 0 0z"/>
    <path class="fil7" d="M202.86 34.86c-0.1,0 -0.24,-0.05 -0.41,-0.15 -0.01,-0.06 -0.02,-0.11 -0.03,-0.16l0.63 -0.16c0,0.02 0.01,0.05 0.02,0.07 0.05,0.2 0,0.4 -0.21,0.4z"/>
    <path class="fil10" d="M202.4 34.43c0,-0.07 0,-0.13 0.05,-0.2 0.08,-0.11 0.17,-0.16 0.25,-0.16l-0.3 0.36z"/>
    <path class="fil8" d="M195.99 20.9c-0.1,0 -0.15,-0.04 -0.14,-0.13 0.05,-0.01 0.06,-0.05 0.12,-0.05 0,0 0.01,0 0.02,0 0.01,0.06 0.06,0.08 0.04,0.17 -0.01,0.01 -0.03,0.01 -0.04,0.01l0 0z"/>
    <path class="fil8" d="M193.93 22.32c-0.01,0 -0.02,0 -0.03,0 -0.04,-0.05 -0.06,-0.12 -0.05,-0.22l0.19 0c0.01,0.12 0,0.22 -0.11,0.22z"/>
    <path class="fil9" d="M208.58 24.26l-0.23 0c-0.01,-0.13 0.01,-0.22 0.13,-0.22 0.02,0 0.04,0 0.06,0 0.04,0.05 0.06,0.12 0.04,0.22z"/>
    <path class="fil7" d="M193.44 27.29c-0.01,0 -0.02,0 -0.04,0l0 -0.17c0.02,-0.01 0.04,-0.01 0.06,-0.01 0.08,0 0.11,0.05 0.11,0.09 -0.01,0.05 -0.05,0.09 -0.13,0.09z"/>
    <path class="fil8" d="M188.24 27.54c-0.01,0 -0.02,0 -0.03,-0.01 -0.08,-0.08 0.01,-0.05 0,-0.17 0.01,0 0.02,0 0.03,0 0.07,0 0.1,0.04 0.1,0.09 0,0.04 -0.03,0.09 -0.1,0.09l0 0z"/>
    <path class="fil11" d="M202.65 27.7l-0.08 -0.05 0.06 0c0.01,0.02 0.01,0.04 0.02,0.05l0 0z"/>
    <path class="fil7" d="M202.54 27.91c-0.01,-0.03 -0.03,-0.05 -0.07,-0.05 0,0 -0.01,0.01 -0.02,0.01 -0.01,-0.1 0.01,-0.17 0.04,-0.22l0.08 0 0.08 0.05c0.02,0.09 -0.01,0.16 -0.11,0.21l0 0z"/>
    <path class="fil7" d="M197.63 30.04c-0.09,0 -0.18,-0.08 -0.06,-0.24l0.13 0c0.12,0.16 0.03,0.24 -0.07,0.24z"/>
    <path class="fil7" d="M204.27 30.24c-0.16,0 -0.17,-0.11 -0.12,-0.22l0.18 0c0.04,0.13 0.04,0.08 0,0.22 -0.02,0 -0.04,0 -0.06,0l0 0z"/>
    <path class="fil7" d="M196.65 31.23c-0.1,0 -0.15,-0.06 -0.13,-0.18 0.03,-0.03 0.07,-0.04 0.1,-0.04 0.1,0 0.19,0.13 0.08,0.22 -0.01,0 -0.03,0 -0.05,0z"/>
    <path class="fil9" d="M193.47 33.37c-0.02,0 -0.05,0 -0.07,0l0.04 -0.28c0.09,0.05 0.16,0.18 0.06,0.28 -0.01,0 -0.02,0 -0.03,0l0 0z"/>
    <path class="fil9" d="M195.29 34.84c-0.02,0 -0.03,0 -0.05,-0.01 -0.01,-0.1 0.01,-0.17 0.11,-0.17 0,0 0,0 0.01,0l-0.05 0.18c-0.01,0 -0.02,0 -0.02,0l0 0z"/>
    <path class="fil7" d="M200.72 37.14l-0.18 0c-0.01,-0.09 0.01,-0.16 0.09,-0.17 0.03,0.07 0.07,0.11 0.09,0.17z"/>
    <g>
     <path class="fil12" d="M199.61 31.26c0,0.33 -0.26,0.59 -0.58,0.59 -0.32,0 -0.58,-0.26 -0.58,-0.59 0,-0.32 0.26,-0.58 0.58,-0.58 0.32,0 0.58,0.26 0.58,0.58z"/>
     <path class="fil3" d="M201.03 29.85c0,0.32 -0.26,0.58 -0.58,0.58 -0.32,0 -0.58,-0.26 -0.58,-0.58 0,-0.33 0.26,-0.59 0.58,-0.59 0.32,0 0.58,0.26 0.58,0.59z"/>
     <path class="fil12" d="M201.03 32.68c0,0.32 -0.26,0.59 -0.58,0.59 -0.32,0 -0.58,-0.27 -0.58,-0.59 0,-0.32 0.26,-0.58 0.58,-0.58 0.32,0 0.58,0.26 0.58,0.58z"/>
     <path class="fil13" d="M202.45 31.26c0,0.33 -0.26,0.59 -0.58,0.59 -0.32,0 -0.59,-0.26 -0.59,-0.59 0,-0.32 0.27,-0.58 0.59,-0.58 0.32,0 0.58,0.26 0.58,0.58z"/>
     <polygon class="fil6" points="202.13,35.86 202.56,36.34 205.46,32.79 204.99,32.52 "/>
     <path class="fil14" d="M202.94 34.98c0,0.36 -0.32,0.65 -0.7,0.65 -0.39,0 -0.7,-0.29 -0.7,-0.65 0,-0.37 0.31,-0.66 0.7,-0.66 0.38,0 0.7,0.29 0.7,0.66z"/>
    </g>
   </g>
  </g>
 </g>
</svg>
